Terri.2011.480p.BRRip.XviD.AC3-PRESTiGE

iMDB.............:  http://www.imdb.com/title/tt1687281/
GENRE............: Comedy
LANGUAGE.........: English
FORMAT...........: AVi
SOURCE...........: 720p x264 DXVA-MXMG MANY THANKS!!
FiLE SiZE........: 2.13 GB
SAMPLE iNCLUDED..: YES
SUBS.............: NoNE
DURATiON.........: 1h 45mn
ENCODED by.......: akosipalos





ID                               : 0
Format                           : MPEG-4 Visual
Format profile                   : Advanced Simple@L5
Format settings, BVOP            : 2
Format settings, QPel            : No
Format settings, GMC             : No warppoints
Format settings, Matrix          : Default (H.263)
Codec ID                         : XVID
Codec ID/Hint                    : XviD
Duration                         : 1h 45mn
Bit rate                         : 2 449 Kbps
Width                            : 720 pixels
Height                           : 384 pixels
Display aspect ratio             : 1.875
Frame rate                       : 23.976 fps
Color space                      : YUV
Chroma subsampling               : 4:2:0
Bit depth                        : 8 bits
Scan type                        : Progressive
Compression mode                 : Lossy
Bits/(Pixel*Frame)               : 0.370
Stream size                      : 1.80 GiB (84%)
Writing library                  : XviD 1.2.1 (UTC 2008-12-04)




ID                               : 1
Format                           : AC-3
Format/Info                      : Audio Coding 3
Mode extension                   : CM (complete main)
Codec ID                         : 2000
Duration                         : 1h 45mn
Bit rate mode                    : Constant
Bit rate                         : 448 Kbps
Channel(s)                       : 6 channels
Channel positions                : Front: L C R, Side: L R, LFE
Sampling rate                    : 48.0 KHz
Bit depth                        : 16 bits
Compression mode                 : Lossy
Stream size                      : 337 MiB (15%)
Alignment                        : Split accross interleaves
Interleave, duration             : 500 ms (11.99 video frames)
Interleave, preload duration     : 500 ms

  http://i824.photobucket.com/albums/zz161/akosipalos/4-28.png
  http://i824.photobucket.com/albums/zz161/akosipalos/1-44.png
  http://i824.photobucket.com/albums/zz161/akosipalos/2-30.png
  http://i824.photobucket.com/albums/zz161/akosipalos/5-19.png